<svg xmlns="http://www.w3.org/2000/svg" xmlns:xlink="http://www.w3.org/1999/xlink" width="205" height="253" viewBox="22 0 205 253">
    <defs>
        <filter id="a" width="191.1%" height="173%" x="-45.5%" y="-36.5%" filterUnits="objectBoundingBox">
            <feOffset dy="24" in="SourceAlpha" result="shadowOffsetOuter1"/>
            <feGaussianBlur in="shadowOffsetOuter1" result="shadowBlurOuter1" stdDeviation="12"/>
            <feColorMatrix in="shadowBlurOuter1" result="shadowMatrixOuter1" values="0 0 0 0 0 0 0 0 0 0 0 0 0 0 0 0 0 0 0.2 0"/>
            <feMerge>
                <feMergeNode in="shadowMatrixOuter1"/>
                <feMergeNode in="SourceGraphic"/>
            </feMerge>
        </filter>
        <path id="b" d="M.196.381h90.338v104.055H.196z"/>
        <linearGradient id="d" x1="0%" y1="0%" y2="100%">
            <stop offset="0%" stop-color="#EB72FF"/>
            <stop offset="100%" stop-color="#A0F"/>
        </linearGradient>
    </defs>
    <g fill="none" fill-rule="evenodd" filter="url(#a)" transform="translate(24)">
        <g transform="translate(64.593)">
            <mask id="c" fill="#fff">
                <use xlink:href="#b"/>
            </mask>
            <path fill="#A200F3" d="M90.534 45.567v58.869h-7.816v-58.87c0-19.646-15.296-35.829-34.602-37.23a26.225 26.225 0 0 0-2.757-.138c-7.257 0-14.032 2.108-19.8 5.704a35.325 35.325 0 0 0-5.37 4.095c-7.483 6.828-12.16 16.647-12.16 27.57v58.869H.195v-58.87c0-1.837.128-3.687.348-5.467 1.377-11.424 7.037-21.563 15.354-28.74a43.614 43.614 0 0 1 6.075-4.438s0-.025.033-.025C28.814 2.756 36.834.379 45.359.379c24.903 0 45.175 20.29 45.175 45.188" mask="url(#c)"/>
        </g>
        <path fill="#A200F3" d="M3.523 106.172h194.64V65.767H3.523z"/>
        <path fill="#EC7EFF" d="M184.384 73.197l14.069-7.43v41.857h-14.07z"/>
        <path fill="#BC20FF" d="M201.056 81.024l-16.672-8.21v8.21z"/>
        <path fill="#EC7EFF" d="M17.592 73.197l-14.069-7.43v41.857h14.069z"/>
        <path fill="#BC20FF" d="M0 81.024l17.847-8.21v8.21z"/>
        <path fill="url(#d)" d="M8.293 251.553c-4.582 0-8.293-3.717-8.293-8.297V81.035h201.035v162.221c0 4.58-3.715 8.297-8.293 8.297H8.292z"/>
        <path fill="#EC7EFF" d="M55.355 89.908V52.074c0-13.362 5.822-25.384 15.08-33.672a44.886 44.886 0 0 1 10.01-6.8c6.033-3.02 12.858-4.716 20.081-4.716 4.188 0 8.285.568 12.133 1.696 19.015 5.281 33.026 22.775 33.026 43.492v37.835a7.1 7.1 0 0 1 4.536 6.625v18.237a7.115 7.115 0 0 1-7.12 7.114h-2.658a7.112 7.112 0 0 1-7.115-7.114V96.534c0-3.024 1.882-5.6 4.54-6.628V52.074c0-20.597-16.763-37.369-37.342-37.369-5.635 0-11.013 1.257-15.79 3.535-3.225 1.472-6.165 3.418-8.794 5.737-4.942 4.34-8.765 9.98-10.851 16.365a36.523 36.523 0 0 0-1.912 11.732v37.835a7.102 7.102 0 0 1 4.534 6.625v18.237a7.114 7.114 0 0 1-7.111 7.114h-2.666a7.112 7.112 0 0 1-7.115-7.114V96.534a7.099 7.099 0 0 1 4.534-6.626z"/>
        <g transform="translate(59 136)">
            <path fill="#FFF" d="M35.913 13.467v28h-7.92v-21.88h-5.2v-6.12h13.12zm18.52 10.16c1.76 0 3.374.366 4.84 1.1 1.467.733 2.634 1.773 3.5 3.12.867 1.346 1.3 2.886 1.3 4.62 0 1.893-.486 3.566-1.46 5.02-.973 1.453-2.293 2.573-3.96 3.36-1.666.786-3.526 1.18-5.58 1.18-4 0-7.16-1.187-9.48-3.56-2.32-2.374-3.48-5.787-3.48-10.24 0-3.2.62-5.954 1.86-8.26 1.24-2.307 2.98-4.06 5.22-5.26 2.24-1.2 4.84-1.8 7.8-1.8 1.6 0 3.12.173 4.56.52 1.44.346 2.667.853 3.68 1.52l-2.88 5.68c-1.36-.96-3.08-1.44-5.16-1.44-2.026 0-3.666.56-4.92 1.68-1.253 1.12-1.973 2.733-2.16 4.84 1.6-1.387 3.707-2.08 6.32-2.08zm-1.84 12.76c1.12 0 2.034-.32 2.74-.96.707-.64 1.06-1.507 1.06-2.6 0-1.067-.353-1.92-1.06-2.56-.706-.64-1.633-.96-2.78-.96-1.146 0-2.08.326-2.8.98-.72.653-1.08 1.513-1.08 2.58 0 1.04.354 1.886 1.06 2.54.707.653 1.66.98 2.86.98zM39.163 69.283h-1.76v3.584h-1.536v-8.48h1.536v3.584h1.792l2.752-3.584h1.648l-3.216 4.08 3.44 4.4H42.01l-2.848-3.584zm12.512-3.552H46.97v7.136h-1.536v-8.48h6.24v1.344z"/>
            <path fill="#FFF" d="M21.533 52.133h41.933v1.133H21.533z" opacity=".4"/>
            <rect width="84" height="84" x=".5" y=".5" stroke="#FFF" stroke-opacity=".4" rx="16"/>
        </g>
    </g>
</svg>
