<svg xmlns="http://www.w3.org/2000/svg" width="104" height="86" viewBox="0 0 104 86">
    <path fill="#64DD17" fill-rule="evenodd" d="M85.5 45a2.046 2.046 0 1 1-.001 4.092A2.046 2.046 0 0 1 85.5 45zm2.045 15.545a4.096 4.096 0 0 1 4.091 4.091 4.096 4.096 0 0 1-4.09 4.091 4.096 4.096 0 0 1-4.091-4.09 4.096 4.096 0 0 1 4.09-4.092zm-66.272 4.091a4.096 4.096 0 0 1 4.09-4.09 4.095 4.095 0 0 1 4.092 4.09 4.095 4.095 0 0 1-4.091 4.091 4.096 4.096 0 0 1-4.091-4.09zm78.57-6.354V47.76H93.35a1.623 1.623 0 0 1-1.623-1.619c0-.892.728-1.619 1.623-1.619h6.314l-.192-.54a6.508 6.508 0 0 0-6.122-4.317H70.621v21.047h5.448l.096-.27c1.658-4.68 6.118-7.825 11.097-7.825 4.797 0 9.2 2.995 10.957 7.451l.192.488.425-.308a2.437 2.437 0 0 0 1.008-1.965zM87.263 72.853c4.7 0 8.523-3.813 8.523-8.5 0-4.686-3.823-8.499-8.523-8.499-4.7 0-8.523 3.813-8.523 8.5 0 4.686 3.823 8.499 8.523 8.499zm-16.64-49.378v10.661l5.345-5.33a1.615 1.615 0 0 1 1.148-.474 1.618 1.618 0 0 1 1.148 2.764l-5.346 5.33h18.354l-3.247-12.951H70.62zm0-8.095v4.857h16.64a2.435 2.435 0 0 0 2.435-2.428 2.435 2.435 0 0 0-2.435-2.429h-16.64zm-3.248 45.33V5.667a2.435 2.435 0 0 0-2.435-2.428H5.682a2.435 2.435 0 0 0-2.435 2.428v52.616a2.435 2.435 0 0 0 2.435 2.429h8.29l.094-.27c1.66-4.68 6.12-7.825 11.098-7.825 4.976 0 9.436 3.145 11.097 7.825l.095.27h31.018zm-42.21 12.143c4.7 0 8.523-3.813 8.523-8.5 0-4.686-3.823-8.499-8.523-8.499-4.7 0-8.523 3.813-8.523 8.5 0 4.686 3.823 8.499 8.523 8.499zm69.739-36.302a9.678 9.678 0 0 1 8.188 9.59v12.141a5.679 5.679 0 0 1-3.797 5.344l-.278.099.011.4c.003.077.005.152.005.228 0 6.472-5.28 11.738-11.77 11.738-6.49 0-11.77-5.266-11.77-11.738v-.404H36.934v.404c0 6.472-5.28 11.738-11.77 11.738-6.49 0-11.77-5.266-11.77-11.738v-.404H5.682C2.55 63.949 0 61.407 0 58.282V5.666C0 2.542 2.55 0 5.682 0H64.94c3.133 0 5.682 2.542 5.682 5.666v6.476h16.641c3.133 0 5.682 2.542 5.682 5.667a5.61 5.61 0 0 1-1.756 4.093l-.17.162 3.62 14.445.265.042zm-58.494 7.402c8.262 0 14.984-6.871 14.984-15.317 0-8.445-6.722-15.317-14.984-15.317s-14.984 6.872-14.984 15.317c0 8.446 6.722 15.317 14.984 15.317zm0-34.135c10.15 0 18.41 8.442 18.41 18.818 0 10.377-8.26 18.819-18.41 18.819S18 39.013 18 28.636C18 18.26 26.258 9.818 36.409 9.818zm8.554 17.926a1.674 1.674 0 0 1 0 3.347h-8.926c-.924 0-1.673-.75-1.673-1.674v-8.925a1.674 1.674 0 0 1 3.347 0v7.252h7.252zM5.934 82.636h93.273a1.636 1.636 0 0 1 0 3.273H5.934a1.636 1.636 0 1 1 0-3.273z"/>
</svg>
