<svg xmlns="http://www.w3.org/2000/svg" width="185" height="157" viewBox="0 0 185 157">
    <g fill="#64DD17" fill-rule="evenodd">
        <path fill-rule="nonzero" d="M95 65.21a6.146 6.146 0 0 0-6.148-6.143h-1.51l-3.166-4.818a16.649 16.649 0 0 0-6.354-5.695l-4.691-2.388 20.64-15.358a3.071 3.071 0 0 0 .614-4.301 3.075 3.075 0 0 0-4.303-.614l-15.835 11.77 8.226-20.445a3.07 3.07 0 0 0-.433-3.041 3.077 3.077 0 0 0-5.273.75L65.812 42.174l-4.881-2.879a16.71 16.71 0 0 0-18.138.762 10.431 10.431 0 0 1-2.924 1.453l-4.158 1.315a16.8 16.8 0 0 0-6.856 4.197l-2.704 2.745a16.761 16.761 0 0 0-2.125 2.652l-4.285 6.65h-1.593A6.146 6.146 0 0 0 12 65.21a33.65 33.65 0 0 0 1.64 10.349c0 .036.023.073.039.11C18.223 89.569 31.184 98.979 45.815 99h15.37c14.63-.022 27.594-9.432 32.136-23.33 0-.037.024-.074.04-.11A33.608 33.608 0 0 0 95 65.21zm-65.803-9.45c.39-.603.839-1.164 1.34-1.677l2.704-2.74a10.61 10.61 0 0 1 4.329-2.651l4.16-1.315a16.67 16.67 0 0 0 4.626-2.3 10.552 10.552 0 0 1 11.45-.48l7.51 4.426c.21.123.424.237.64.35l.038.022.21.116 8.814 4.507a10.556 10.556 0 0 1 3.996 3.597l.95 1.45h-52.9l2.133-3.305zm59.655 9.45a27.521 27.521 0 0 1-.716 6.144H18.864a27.521 27.521 0 0 1-.716-6.143h70.704zM61.185 92.858h-15.37a27.67 27.67 0 0 1-24.74-15.36h64.863a27.666 27.666 0 0 1-24.753 15.36z"/>
        <path d="M7 157H4a3 3 0 1 1 0-6h3a3 3 0 1 1 0 6zm98 0h-3a3 3 0 1 1 0-6h3a3 3 0 1 1 0 6zm76.917-61.54A3.08 3.08 0 0 1 185 98.537v27.714a6.208 6.208 0 0 1-5.026 6.1l-9.25 2.96a3.08 3.08 0 0 1-.925.148h-9.74a18.363 18.363 0 0 1-4.071 15.023A18.417 18.417 0 0 1 141.834 157h-24.668a3.082 3.082 0 0 1-3.082-3.08c0-1.7 1.38-3.08 3.082-3.08h10.916a18.368 18.368 0 0 1-4.748-12.317c.007-1.017.098-2.032.271-3.032H61.396a18.352 18.352 0 0 1-4.082 15.008 18.399 18.399 0 0 1-14.146 6.5H18.5a3.082 3.082 0 0 1-3.083-3.08c0-1.7 1.38-3.08 3.083-3.08h10.916a18.12 18.12 0 0 1-4.45-15.368l-9.866-.042a3.12 3.12 0 0 1-.925-.146l-9.682-3.078A6.072 6.072 0 0 1 0 126.283V9.24C0 4.136 4.141 0 9.25 0h78.01a9.447 9.447 0 0 1 5.745 2.002l11.443 9.142a9.235 9.235 0 0 1 3.47 7.209V49.27h17.405a9.216 9.216 0 0 1 8.593 5.81l16.172 40.38h31.83zm-3.084 6.158h-6.166v6.158h6.145l.021-6.158zm-70.916-33.873V95.46h35.529l-11.1-27.714h-24.429zm20.273-10.377a3.08 3.08 0 0 0-2.867-1.94h-17.406v6.159h21.962l-1.69-4.22zM6.167 95.459v15.396l6.166-4.618v-6.16L6.167 95.46zm37 55.38c6.812 0 12.334-5.514 12.334-12.316 0-6.803-5.522-12.317-12.333-12.317-6.812 0-12.333 5.514-12.333 12.317 0 6.802 5.521 12.317 12.333 12.317zm0-30.792a18.503 18.503 0 0 1 16.033 9.285h48.702V118.45a3.092 3.092 0 0 0-.308-1.37 3.09 3.09 0 0 1-.18-.438L101.9 99.463a3.025 3.025 0 0 1-.148-.925V18.353a3.08 3.08 0 0 0-1.156-2.408L89.186 6.84a3.208 3.208 0 0 0-1.927-.68H9.251a3.082 3.082 0 0 0-3.084 3.08V87.76l9.867 7.39a6.181 6.181 0 0 1 2.466 4.927v6.16a6.181 6.181 0 0 1-2.466 4.927l-9.867 7.39v7.73l9.417 2.999 11.55.05a18.506 18.506 0 0 1 16.034-9.286zm98.667 30.793c6.812 0 12.333-5.515 12.333-12.317 0-6.803-5.521-12.317-12.333-12.317s-12.333 5.514-12.333 12.317c0 6.802 5.521 12.317 12.333 12.317zm36.46-24.409c.148-.05.3-.087.456-.111l.041-12.385h-6.124a6.162 6.162 0 0 1-6.167-6.159v-6.158h-57.44l4.16 12.957a9.26 9.26 0 0 1 .864 3.89v10.867H125.8a18.461 18.461 0 0 1 16.011-9.293 18.46 18.46 0 0 1 16.029 9.262h11.479l8.975-2.87z"/>
    </g>
</svg>
