<svg xmlns="http://www.w3.org/2000/svg" width="89" height="107" viewBox="0 0 89 107">
    <path fill="#64DD17" fill-rule="evenodd" d="M14.845 52.674a1.56 1.56 0 0 1-1.563-1.558v-3.497c0-.86.7-1.558 1.563-1.558a1.56 1.56 0 0 1 1.562 1.558v3.497c0 .86-.7 1.558-1.562 1.558zm11.079 0a1.56 1.56 0 0 1-1.563-1.558v-3.497c0-.86.7-1.558 1.563-1.558a1.56 1.56 0 0 1 1.563 1.558v3.497c0 .86-.7 1.558-1.563 1.558zm41.944-28.32c11.652 0 21.133 9.27 21.133 20.667v21.153c0 1.443-1.188 2.618-2.648 2.618h-1.677c.328.8.511 1.675.511 2.59v2.366c0 .86-.7 1.558-1.563 1.558a1.56 1.56 0 0 1-1.563-1.558v-2.366c0-2.108-1.757-3.821-3.915-3.821h-2.311a15.215 15.215 0 0 1-7.967 2.238c-2.016 0-3.939-.393-5.697-1.1.08.325.127.661.127 1.009v2.37c0 2.362-1.953 4.283-4.354 4.283h-.574a12.98 12.98 0 0 1-2.615 5.259c2.826.643 4.941 3.143 4.941 6.122v4.703c0 .86-.7 1.558-1.563 1.558a1.56 1.56 0 0 1-1.563-1.558v-4.703c0-1.748-1.458-3.168-3.25-3.168h-1.975a13.559 13.559 0 0 1-7.054 1.966 13.56 13.56 0 0 1-7.054-1.966h-1.975c-1.792 0-3.25 1.42-3.25 3.168v15.506H56.57v-3.324c0-.86.7-1.558 1.563-1.558a1.56 1.56 0 0 1 1.563 1.558v3.324h22.365V81.227c0-.86.7-1.558 1.562-1.558a1.56 1.56 0 0 1 1.563 1.558v22.234c0 1.6-1.315 2.903-2.932 2.903H5.998c-1.617 0-2.933-1.303-2.933-2.903V71.38c0-3.41 2.511-6.25 5.807-6.828a14.594 14.594 0 0 1-3.205-6.34h-.823c-2.614 0-4.74-2.091-4.74-4.661v-2.698c0-1.653.88-3.107 2.204-3.934V36.768c0-7.085 5.89-12.85 13.127-12.85 3.21 0 6.155 1.137 8.438 3.017.77-.15 1.564-.231 2.378-.231 6.731 0 12.208 5.361 12.208 11.951v7.296a11.825 11.825 0 0 1 8.275 2.036V45.02c0-11.396 9.48-20.667 21.134-20.667zM48.54 57.333c0-4.61-3.856-8.361-8.597-8.361-4.74 0-8.595 3.75-8.595 8.36v5.755c.28-.268.66-.433 1.08-.433h8.263c1.88 0 3.49-1.266 3.914-3.077a1.563 1.563 0 0 1 1.522-1.204h2.413v-1.04zm-17.9 15.912h.224v-4.704h-.225c-.677 0-1.228.523-1.228 1.167v2.37c0 .644.551 1.167 1.228 1.167zm4.694-34.59c0-4.8-3.956-8.715-8.861-8.83a12.582 12.582 0 0 1 2.089 6.943v1.4h4.578c1.022 0 1.89.66 2.194 1.573v-1.086zM4.844 55.096h.473V49.31h-.473c-.89 0-1.614.693-1.614 1.544v2.698c0 .852.724 1.544 1.614 1.544zm.59-15.357a2.313 2.313 0 0 1 2.194-1.571h17.808v-1.4c0-5.367-4.486-9.733-10.001-9.733S5.434 31.4 5.434 36.768v2.971zm3.007 1.545h.001v13.77c0 6.412 5.357 11.629 11.942 11.629 2.999 0 5.74-1.088 7.839-2.873v-6.477c0-3.483 1.593-6.606 4.103-8.712v-7.337H8.44zm20.446 46.458c0-2.979 2.114-5.479 4.94-6.122a12.99 12.99 0 0 1-2.614-5.259h-.574c-2.401 0-4.354-1.921-4.354-4.283v-2.37c0-.403.061-.794.168-1.165a15.23 15.23 0 0 1-6.07 1.256c-2.923 0-5.653-.822-7.966-2.238h-2.31c-2.16 0-3.916 1.713-3.916 3.82v31.867h22.696V87.742zm5.103-14.344c0 5.528 4.62 10.026 10.301 10.026 5.68 0 10.302-4.498 10.302-10.026V61.49h-7.34c-1.11 2.571-3.654 4.28-6.562 4.28h-6.7v7.628zm17.676-15.024h3.832c.703 0 1.33.327 1.737.834v-.217c0-3.995-3.2-7.276-7.238-7.551a11.227 11.227 0 0 1 1.669 5.893v1.04zm7.506 13.704v-2.37c0-.644-.551-1.167-1.228-1.167h-.226v4.704h.226c.677 0 1.228-.523 1.228-1.167zm1.189-7.995a12.075 12.075 0 0 0 7.507 2.6c6.585 0 11.942-5.217 11.942-11.628v-9.078h-1.57a7.699 7.699 0 0 1-5.768-2.582 7.698 7.698 0 0 1-5.768 2.582H55.925v4.419c2.688 1.948 4.436 5.076 4.436 8.595v5.092zm25.515 1.593V45.02c0-9.677-8.079-17.55-18.008-17.55-9.93 0-18.008 7.873-18.008 17.55v3.292c1.022.037 2.008.212 2.94.508V45.15a2.296 2.296 0 0 1 2.299-2.289h11.605a4.577 4.577 0 0 0 3.842-2.073 2.295 2.295 0 0 1 1.926-1.039c.78 0 1.499.389 1.925 1.039a4.578 4.578 0 0 0 3.842 2.072h2.396c1.269 0 2.3 1.028 2.3 2.29v9.905c0 3.616-1.34 6.93-3.556 9.498a7.067 7.067 0 0 1 2.765 1.123h3.732zM63.89 52.942c0 .86-.7 1.558-1.563 1.558a1.56 1.56 0 0 1-1.562-1.558v-3.497c0-.861.699-1.558 1.562-1.558a1.56 1.56 0 0 1 1.563 1.558v3.497zm9.517-5.055a1.56 1.56 0 0 1 1.562 1.558v3.497c0 .86-.7 1.558-1.562 1.558a1.56 1.56 0 0 1-1.563-1.558v-3.497c0-.861.7-1.558 1.563-1.558zM41.335 71.642c0 .86-.7 1.558-1.563 1.558a1.56 1.56 0 0 1-1.562-1.558v-3.073c0-.86.699-1.558 1.562-1.558a1.56 1.56 0 0 1 1.563 1.558v3.073zm7.475-4.63a1.56 1.56 0 0 1 1.563 1.557v3.073c0 .86-.699 1.558-1.563 1.558a1.56 1.56 0 0 1-1.562-1.558v-3.073c0-.86.7-1.558 1.562-1.558zM42.243 31.08L27.895 16.933a9.789 9.789 0 0 1-2.942-7.017 9.791 9.791 0 0 1 2.942-7.018A10.037 10.037 0 0 1 34.987 0c2.678 0 5.197 1.029 7.093 2.898l2.473 2.438 2.472-2.438A10.04 10.04 0 0 1 54.117 0c2.678 0 5.197 1.029 7.093 2.898a9.79 9.79 0 0 1 2.943 7.018 9.79 9.79 0 0 1-2.942 7.017l-3.474 3.425c-.614.605-1.604.6-2.21-.012a1.554 1.554 0 0 1 .012-2.204l3.473-3.424a6.7 6.7 0 0 0 2.016-4.802 6.701 6.701 0 0 0-2.016-4.803 6.927 6.927 0 0 0-4.895-1.997c-1.848 0-3.587.71-4.894 1.998l-3.572 3.522c-.608.6-1.588.6-2.197 0L39.88 5.113a6.927 6.927 0 0 0-4.894-1.997c-1.85 0-3.588.71-4.894 1.997a6.7 6.7 0 0 0-2.015 4.803c0 1.816.716 3.52 2.015 4.802L44.44 28.865c.03.029.068.044.113.044.03 0 .075-.007.111-.043l5.458-5.381a1.566 1.566 0 0 1 2.21.012 1.554 1.554 0 0 1-.013 2.203l-5.457 5.38a3.27 3.27 0 0 1-2.31.945c-.87 0-1.69-.335-2.31-.944zm-26.55 26.57c0-.86.7-1.558 1.563-1.558a1.56 1.56 0 0 1 1.563 1.558c0 .915.763 1.66 1.7 1.66.937 0 1.7-.745 1.7-1.66 0-.86.7-1.558 1.563-1.558a1.56 1.56 0 0 1 1.562 1.558c0 2.633-2.165 4.775-4.825 4.775-2.661 0-4.825-2.142-4.825-4.775zm55.597-1.558a1.56 1.56 0 0 1 1.563 1.558c0 2.633-2.165 4.775-4.826 4.775-2.661 0-4.825-2.142-4.825-4.775 0-.86.699-1.558 1.562-1.558a1.56 1.56 0 0 1 1.563 1.558c0 .915.763 1.66 1.7 1.66.937 0 1.7-.745 1.7-1.66 0-.86.7-1.558 1.563-1.558zM47.816 74.475a1.56 1.56 0 0 1 1.563 1.558c0 2.634-2.166 4.776-4.826 4.776-2.661 0-4.826-2.142-4.826-4.776 0-.86.7-1.558 1.563-1.558a1.56 1.56 0 0 1 1.562 1.558c0 .915.763 1.66 1.7 1.66.938 0 1.701-.745 1.701-1.66 0-.86.7-1.558 1.563-1.558z"/>
</svg>
