<svg xmlns="http://www.w3.org/2000/svg" width="107" height="96" viewBox="0 0 107 96">
    <path fill="#64DD17" fill-rule="evenodd" d="M41.045 35.842c.58.636.535 1.623-.099 2.205a1.55 1.55 0 0 1-2.197-.1 1.73 1.73 0 0 0-3.004 1.142 1.558 1.558 0 0 1-1.554 1.534h-.027a1.558 1.558 0 0 1-1.529-1.587 4.86 4.86 0 0 1 4.917-4.773 4.844 4.844 0 0 1 3.493 1.579zm8.274 5.086a1.563 1.563 0 0 1-.823 2.047 1.553 1.553 0 0 1-2.04-.825 1.316 1.316 0 0 0-.76-.728 1.336 1.336 0 0 0-1.714.79 1.556 1.556 0 0 1-1.999.92 1.563 1.563 0 0 1-.917-2.006 4.447 4.447 0 0 1 5.706-2.633 4.462 4.462 0 0 1 2.547 2.435zM59.34 27.105c.608.609.609 1.597.002 2.207l-1.466 1.474a1.547 1.547 0 0 1-2.199.003 1.565 1.565 0 0 1-.002-2.208l1.466-1.474a1.55 1.55 0 0 1 2.199-.002zm-9.675 20.15c.86 0 1.555.698 1.555 1.56 0 .862-.696 1.56-1.555 1.56h-2.072a1.558 1.558 0 0 1-1.555-1.56c0-.862.696-1.56 1.555-1.56h2.072zm15.892 0c.858 0 1.555.698 1.555 1.56 0 .862-.697 1.56-1.555 1.56h-2.073a1.558 1.558 0 0 1-1.555-1.56c0-.862.696-1.56 1.555-1.56h2.073zm40.549 28.142a2.94 2.94 0 0 1-.47 2.211 2.93 2.93 0 0 1-1.898 1.233l-8.235 1.518 4.381 1.01a2.952 2.952 0 0 1 2.258 3.315l-.337 2.268a2.971 2.971 0 0 1-1.201 1.969 2.93 2.93 0 0 1-2.24.505l-12.431-2.243a7.119 7.119 0 0 1-1.563 5.69 7.116 7.116 0 0 1-5.48 2.571l-62.24.019C7.469 95.463 0 88.513 0 79.97c0-4.342 1.933-8.269 5.037-11.083V23.335c0-4.02 3.219-7.295 7.2-7.364v-3.31a2.6 2.6 0 0 1-2.15-2.56v-7.5A2.6 2.6 0 0 1 12.68 0h12.646a2.6 2.6 0 0 1 2.592 2.601v7.5a2.6 2.6 0 0 1-2.15 2.56v3.31c3.982.07 7.2 3.346 7.2 7.365v5.836c.335-.106.68-.194 1.035-.256a7.873 7.873 0 0 1 4.764.671 7.884 7.884 0 0 1 4.259-2.247 7.8 7.8 0 0 1 6.572 1.875l7.529-7.574a2.619 2.619 0 0 1 1.868-.778c.706 0 1.37.276 1.869.777a15.445 15.445 0 0 1 3.661 5.88 12.661 12.661 0 0 1 6.817-1.976c1.626 0 3.22.307 4.735.913a1.902 1.902 0 0 1 1.075 1.088c.88 2.228 1.103 4.601.725 6.87a8.141 8.141 0 0 1 1.684-.177c4.385 0 7.977 3.478 8.193 7.834a11.792 11.792 0 0 1 4.973.833 1.883 1.883 0 0 1 1.054 1.062 12.01 12.01 0 0 1-.094 9.056 2.61 2.61 0 0 1 1.545 2.383c0 2.394-.214 4.746-.63 7.049.38-.05.771-.027 1.144.072a2.963 2.963 0 0 1 1.81 1.406l1.13 2.008a2.96 2.96 0 0 1-.928 3.907l-3.734 2.505 8.243-1.52a2.95 2.95 0 0 1 3.435 2.37l.406 2.194zM88.33 45.179c-1.997 0-3.892.67-5.435 1.9a7.245 7.245 0 0 1 1.671 2.88l.708-.71a1.55 1.55 0 0 1 2.199-.003c.608.609.609 1.597.002 2.207l-1.336 1.345h4.189a8.869 8.869 0 0 0 .743-7.177 8.691 8.691 0 0 0-2.741-.442zm-8.77-7.82a5.08 5.08 0 0 0-4.274 2.35 7.235 7.235 0 0 1 4.298 5.366c.214.06.422.132.627.21a11.806 11.806 0 0 1 4.438-2.643c.002-.052.004-.104.004-.156 0-2.827-2.284-5.127-5.093-5.127zm-8.22-8.694a9.604 9.604 0 0 0-6.855 2.859 9.764 9.764 0 0 0-2.657 5.019c.842.114 1.644.359 2.385.71l3.898-3.92a1.55 1.55 0 0 1 2.199-.002c.608.608.61 1.597.003 2.207l-3.566 3.587a8.259 8.259 0 0 1 1.176 1.639 7.25 7.25 0 0 1 3.305-1.513c.275-.048.552-.079.83-.095a8.288 8.288 0 0 1 1.992-2.772 9.812 9.812 0 0 0 .385-7.208 9.6 9.6 0 0 0-3.095-.511zM59.425 52.798a1.564 1.564 0 0 1 .226-1.92 1.55 1.55 0 0 1 2.199.002l1.465 1.474c.132.133.233.284.308.444h3.293a12.377 12.377 0 0 0 1.995-6.299H44.24a12.377 12.377 0 0 0 1.994 6.299H49.4c.074-.16.175-.311.307-.444l1.466-1.474a1.551 1.551 0 0 1 2.199-.002c.52.52.594 1.318.226 1.92h1.586c.227-.58.788-.99 1.446-.99.659 0 1.22.41 1.447.99h1.348zm-3.617-9.42h9.832c-.586-2.18-2.567-3.79-4.916-3.79-2.348 0-4.33 1.61-4.916 3.79zm3.18-19.192l-7.513 7.558c.29.623.503 1.293.625 2l.002.013a7.854 7.854 0 0 1 4.786 3.67 8.115 8.115 0 0 1 1.76-.69c.057-.44.136-.876.239-1.307h-1.818a1.558 1.558 0 0 1-1.555-1.56c0-.863.696-1.561 1.555-1.561h2.072c.297 0 .574.085.81.23a12.856 12.856 0 0 1 1.974-2.841 12.357 12.357 0 0 0-2.937-5.512zM30.878 38.27a1.563 1.563 0 0 1-.813 1.943 4.765 4.765 0 0 0-2.685 5.127 4.73 4.73 0 0 0 1.103 2.318c.13-.937.368-1.869.726-2.775a1.876 1.876 0 0 1 1.053-1.06 11.797 11.797 0 0 1 4.397-.848c2.41 0 4.71.719 6.66 2.053a2.644 2.644 0 0 1 2.444-1.65h8.868a8.243 8.243 0 0 1 1.797-3.941 4.733 4.733 0 0 0-3.905-2.799 1.559 1.559 0 0 1-1.419-1.552c0-.275-.024-.548-.069-.809a4.721 4.721 0 0 0-5.477-3.862 4.707 4.707 0 0 0-3.145 2.065 1.555 1.555 0 0 1-2.227.388 4.688 4.688 0 0 0-3.65-.877 4.762 4.762 0 0 0-3.658 6.279zm4.635 14.101a1.565 1.565 0 0 1 .003-2.207 1.55 1.55 0 0 1 2.2.002l2.615 2.632h2.344a15.457 15.457 0 0 1-1.19-3.418 8.695 8.695 0 0 0-6.825-3.283 8.69 8.69 0 0 0-2.742.442 8.874 8.874 0 0 0 .285 6.259h3.735l-.425-.427zm-6.622.427c-.12-.395-.217-.797-.297-1.202a7.825 7.825 0 0 1-2.836-2.359 5.134 5.134 0 0 0-2.41 3.561h5.543zM13.198 3.122V9.58h11.609V3.12h-11.61zm9.46 9.58h-7.31v3.266h7.31v-3.266zM8.148 29.665v18.373h14.207a8.25 8.25 0 0 1 2.072-1.635 7.9 7.9 0 0 1 3.183-8.367c0-.006-.002-.011-.003-.016a7.885 7.885 0 0 1 2.25-6.97v-1.385h-2.903a1.558 1.558 0 0 1-1.555-1.56c0-.863.696-1.561 1.555-1.561h2.903v-3.209c0-2.34-1.891-4.245-4.217-4.245H12.365c-2.326 0-4.217 1.904-4.217 4.245v3.209h10.098c.859 0 1.555.698 1.555 1.56 0 .862-.696 1.561-1.555 1.561H8.148zm0 21.494v15.505c.216-.12.434-.237.657-.348.127-.818.707-1.999 2.806-2.83 1.373-.545 3.164-.844 5.045-.844.466 0 .924.019 1.371.055a39.638 39.638 0 0 1-.674-7.292 2.605 2.605 0 0 1 2.596-2.607h.262a8.214 8.214 0 0 1 .338-1.64H8.147zm19.69 19.173a1.562 1.562 0 0 1 .791-2.768c1.518-.179 2.478-.566 2.927-.849-.563-.351-1.985-.952-4.547-.952-2.12 0-3.671.448-4.415.867a1.55 1.55 0 0 1-1.523 0c-.743-.42-2.293-.867-4.414-.867-2.561 0-3.985.6-4.548.952.45.282 1.41.67 2.927.848a1.557 1.557 0 0 1 1.314 1.12 1.564 1.564 0 0 1-.523 1.65c-.56.449-.903.831-1.101 1.107h.058c.88 0 2.461-.355 4.26-1.355a11.14 11.14 0 0 0 1.783-1.215 1.55 1.55 0 0 1 2.01 0c.498.423 1.115.843 1.785 1.215 1.798 1 3.38 1.356 4.26 1.356h.057c-.198-.277-.54-.659-1.1-1.109zm-3.11 18.997a7.14 7.14 0 0 1 4.477-7.969l10.998-4.193c-.88-3.455-3.35-6.359-6.665-8.03-.48.359-1.078.669-1.788.92.281.482.478 1 .524 1.542a2.547 2.547 0 0 1-.619 1.925c-.608.689-1.541 1.038-2.773 1.038-1.644 0-3.8-.652-5.767-1.746a15.425 15.425 0 0 1-1.282-.795c-.401.278-.83.544-1.283.795-1.967 1.094-4.123 1.746-5.766 1.746-1.233 0-2.166-.349-2.774-1.038a2.548 2.548 0 0 1-.619-1.925c.047-.541.243-1.06.524-1.543-.71-.25-1.308-.56-1.788-.92C5.948 71.246 3.11 75.31 3.11 79.972c0 6.821 6.074 12.37 13.54 12.37h9.251a7.123 7.123 0 0 1-1.12-2.722l-.053-.29zm57.257 1.543c.765-.92 1.08-2.12.863-3.296l-3.146-17.047a4.01 4.01 0 0 0-1.986-2.774 4.023 4.023 0 0 0-3.412-.252l-12.115 4.62.813 4.405a1.56 1.56 0 0 1-1.53 1.845 1.557 1.557 0 0 1-1.528-1.277l-.71-3.847-2.286.872a1.554 1.554 0 0 1-2.006-.905 1.563 1.563 0 0 1 .901-2.013L73.2 64.584a7.116 7.116 0 0 1 6.035.446 7.117 7.117 0 0 1 3.364 4.256l8.428-4.994a36.101 36.101 0 0 0 1.091-8.373H80.032a1.558 1.558 0 0 1-1.555-1.56c0-.863.696-1.561 1.555-1.561H81.7c.085-.464.096-.948.011-1.438a4.128 4.128 0 0 0-3.697-3.411 1.559 1.559 0 0 1-1.42-1.553 4.113 4.113 0 0 0-4.833-4.07 4.093 4.093 0 0 0-2.119 1.064 2.652 2.652 0 0 1 2.388 2.64c0 2.426-.56 4.72-1.55 6.768h.636c.86 0 1.555.698 1.555 1.56 0 .862-.696 1.561-1.555 1.561h-50.65c.023 1.677.16 3.33.406 4.959.265-.21.598-.335.96-.335.86 0 1.556.698 1.556 1.56v.943a15.72 15.72 0 0 1 3.62-.405c1.881 0 3.673.3 5.046.844 2.099.832 2.679 2.013 2.806 2.83 4.034 2.015 7.077 5.53 8.261 9.739l4.222-1.61c.801-.306 1.7.099 2.005.905a1.563 1.563 0 0 1-.901 2.013l-9.072 3.46.558 3.024a1.56 1.56 0 0 1-1.53 1.845 1.557 1.557 0 0 1-1.528-1.277l-.455-2.466-6.112 2.33a4.018 4.018 0 0 0-2.523 4.482l.054.29a4.024 4.024 0 0 0 3.96 3.29h.001l18.172-.006-.832-4.508a1.555 1.555 0 1 1 3.058-.569l.937 5.075 12.446-.004-.585-3.17a1.556 1.556 0 0 1 3.058-.568l.69 3.736 5.35-.002-.915-4.959a1.555 1.555 0 1 1 3.058-.568l1.02 5.526h1.632c1.2 0 2.329-.53 3.096-1.45zm5.548-12.217l15.485-2.855-.345-1.869-15.489 2.856a1.554 1.554 0 0 1-1.722-.948 1.564 1.564 0 0 1 .577-1.885l9.86-6.615-.974-1.731-11.69 6.926 2.098 11.37 13.422 2.42.289-1.947-11.578-2.665a1.56 1.56 0 0 1-1.207-1.556 1.56 1.56 0 0 1 1.274-1.5z"/>
</svg>
