<svg xmlns="http://www.w3.org/2000/svg" width="102" height="102" viewBox="0 0 102 102">
    <path fill="#64DD17" fill-rule="nonzero" d="M99.404 43.945A1.7 1.7 0 0 0 102 42.5V32.3a1.7 1.7 0 0 0-.804-1.445l-49.3-30.6a1.703 1.703 0 0 0-1.792 0L27.2 14.472V10.2a1.7 1.7 0 0 0-1.7-1.7h-6.8a1.7 1.7 0 0 0-1.7 1.7v10.603L.804 30.855A1.7 1.7 0 0 0 0 32.3v10.2a1.701 1.701 0 0 0 2.596 1.445l4.204-2.61V100.3a1.7 1.7 0 0 0 1.7 1.7h85a1.7 1.7 0 0 0 1.7-1.7V82.693a10.182 10.182 0 0 0 2.72-17.753c-.16-.118-.323-.21-.485-.318A11.821 11.821 0 0 0 95.2 51.21v-9.874l4.204 2.61zM20.4 11.9h3.4v4.68l-3.4 2.11V11.9zm-17 21.347L51 3.701l47.6 29.544v6.195L51.896 10.455a1.703 1.703 0 0 0-1.792 0L3.4 39.44v-6.193zm17 65.353V54.4h20.4v44.2H20.4zm54.4 0V74.8h3.4v23.8h-3.4zm17 0H81.6V83.3h10.2v15.3zm6.8-25.5a6.818 6.818 0 0 1-5.462 6.67c-.44.09-.889.134-1.338.13H81.6v-6.8a1.7 1.7 0 0 0-1.7-1.7h-6.8a1.7 1.7 0 0 0-1.7 1.7v6.8H59.5a5.1 5.1 0 0 1-5.1-5.1c.007-.905.256-1.79.725-2.565A8.5 8.5 0 0 0 61.2 74.8c.21.004.42-.017.624-.065a1.7 1.7 0 0 0-.64-3.335 5.1 5.1 0 0 1-5.034-5.817 5.05 5.05 0 0 1 2.79-3.842c.36-.186.743-.324 1.138-.412h.016a5.1 5.1 0 0 1 3.552.51 1.701 1.701 0 0 0 1.668-2.964 8.49 8.49 0 0 0-3.995-1.044c-.041 0-.077-.024-.119-.024-.16 0-.313.04-.47.048a8.515 8.515 0 0 0-.85.086c-.12.02-.242.012-.36.036 0-.058-.012-.112-.012-.17a6.818 6.818 0 0 1 5.466-6.67 6.738 6.738 0 0 1 5.35 1.182 1.701 1.701 0 0 0 2.016-2.739 10.106 10.106 0 0 0-5.847-1.964h-.021c.01-.048.03-.092.04-.138.104-.465.246-.92.425-1.36.069-.17.16-.317.237-.476.145-.31.307-.609.488-.898.109-.17.233-.327.354-.486.186-.253.387-.496.6-.728a9.16 9.16 0 0 1 1.16-1.025c.17-.124.34-.244.51-.357.271-.167.551-.319.838-.456.18-.086.357-.18.547-.255.33-.125.666-.23 1.009-.314.17-.043.33-.101.51-.136a8.26 8.26 0 0 1 3.31-.017c.18.036.34.112.51.16.365.09.723.203 1.073.34.187.08.35.196.529.285.313.148.618.313.913.497.17.12.326.274.494.405.265.195.52.406.762.63.162.16.287.35.435.522.215.232.416.476.603.731.135.197.228.42.34.63.163.26.31.53.44.808.098.227.15.475.227.713.107.286.198.579.271.875.054.246.055.51.084.764.05.312.082.628.095.945a1.72 1.72 0 0 0-.013.185 8.208 8.208 0 0 1-1.316 4.404 1.706 1.706 0 0 0 2.883 1.825 11.748 11.748 0 0 0 1.724-4.677c.049 0 .092-.012.141-.012a8.5 8.5 0 0 1 7.635 12.229c-.157-.04-.315-.09-.47-.118a9.709 9.709 0 0 0-2.06-.211 10.128 10.128 0 0 0-8.17 4.09 1.7 1.7 0 0 0 2.72 2.04 6.75 6.75 0 0 1 5.45-2.73c.469-.003.937.045 1.396.143.443.083.872.224 1.279.418.5.203.972.47 1.402.798a6.845 6.845 0 0 1 2.723 5.44zm-6.8-33.87v9.52c-.073-.036-.151-.06-.224-.094a9.752 9.752 0 0 0-.85-.34c-.146-.055-.295-.1-.444-.148a10.755 10.755 0 0 0-.707-.2c-.18-.047-.36-.09-.542-.128-.211-.043-.425-.073-.638-.104-.212-.03-.39-.063-.589-.081A11.34 11.34 0 0 0 86.7 47.6h-.12c-.02-.129-.052-.255-.073-.384a7.787 7.787 0 0 0-.264-1.12c-.043-.151-.082-.305-.129-.453-.071-.219-.155-.433-.238-.647-.053-.131-.097-.266-.153-.394a12.032 12.032 0 0 0-.349-.722c-.046-.091-.087-.185-.134-.273a10.33 10.33 0 0 0-.573-.94c-.04-.063-.09-.119-.133-.18-.17-.24-.34-.475-.523-.701-.082-.1-.17-.193-.257-.29a12.935 12.935 0 0 0-.476-.526c-.102-.102-.209-.2-.314-.299-.16-.152-.321-.303-.492-.446-.116-.098-.235-.19-.353-.283-.17-.133-.34-.262-.51-.386-.13-.09-.259-.17-.392-.26a9.261 9.261 0 0 0-.54-.33 12.624 12.624 0 0 0-1.426-.694 11.347 11.347 0 0 0-.616-.224c-.146-.051-.29-.104-.44-.148-.22-.064-.442-.117-.665-.17-.144-.034-.287-.071-.433-.1-.25-.05-.51-.084-.758-.118-.126-.015-.248-.04-.376-.05a11.432 11.432 0 0 0-2.353-.002c-.129.013-.255.039-.382.056-.257.033-.51.066-.766.117-.149.03-.293.072-.44.106-.226.053-.45.107-.68.17-.151.045-.299.102-.448.154-.208.071-.415.143-.618.226-.151.063-.297.133-.445.2-.192.09-.384.17-.57.276-.149.078-.29.161-.433.245-.18.106-.359.211-.532.323-.14.091-.274.187-.41.284a11.876 11.876 0 0 0-1.683 1.455 12.53 12.53 0 0 0-.732.839c-.128.159-.248.322-.366.488a12.67 12.67 0 0 0-.288.414c-.112.17-.215.34-.317.525-.085.145-.17.29-.25.44-.095.183-.182.37-.268.556-.072.153-.145.307-.21.463-.078.192-.146.39-.214.588-.056.16-.118.318-.17.48-.063.205-.11.416-.162.625-.039.17-.084.321-.117.486-.044.223-.073.45-.104.68-.022.158-.052.313-.068.473v.03c-.071.026-.136.065-.207.09-.22.084-.427.184-.638.281a9.747 9.747 0 0 0-.875.435 9.863 9.863 0 0 0-.593.381c-.266.17-.522.362-.769.562a10.795 10.795 0 0 0-1.184 1.147c-.155.17-.307.34-.45.533-.194.255-.371.523-.543.794-.121.193-.245.383-.354.584a9.72 9.72 0 0 0-.421.91c-.086.201-.17.395-.249.6a9.886 9.886 0 0 0-.29 1.079c-.042.181-.099.356-.131.54a9.87 9.87 0 0 0-.028 3.262v.053a8.17 8.17 0 0 0-.736.597l-.07.06a8.277 8.277 0 0 0-.727.761c-.078.093-.146.192-.219.287a8.476 8.476 0 0 0-.423.588c-.075.118-.143.238-.213.36a8.863 8.863 0 0 0-.314.595c-.062.13-.118.261-.17.394a8.15 8.15 0 0 0-.232.64c-.042.133-.086.264-.122.398a8.151 8.151 0 0 0-.154.733c-.021.117-.049.233-.064.351a7.786 7.786 0 0 0 .031 2.4c.018.124.046.244.07.365.064.323.147.643.248.957.023.072.032.147.056.218-.033.036-.054.078-.087.114a8.517 8.517 0 0 0-.836 1.111l-.031.057a8.24 8.24 0 0 0-.593 1.19c-.032.078-.066.154-.095.232-.157.421-.28.854-.365 1.294-.02.088-.031.17-.047.265-.076.47-.114.946-.112 1.423a8.51 8.51 0 0 0 8.5 8.5h11.9v15.3H44.2V52.7a1.7 1.7 0 0 0-1.7-1.7H18.7a1.7 1.7 0 0 0-1.7 1.7v45.9h-6.8V39.23L51 13.9l40.8 25.33z"/>
</svg>
