<svg xmlns="http://www.w3.org/2000/svg" xmlns:xlink="http://www.w3.org/1999/xlink" width="219" height="262" viewBox="0 0 219 262">
    <defs>
        <filter id="a" width="207%" height="185.6%" x="-53.5%" y="-42.8%" filterUnits="objectBoundingBox">
            <feOffset dy="24" in="SourceAlpha" result="shadowOffsetOuter1"/>
            <feGaussianBlur in="shadowOffsetOuter1" result="shadowBlurOuter1" stdDeviation="12"/>
            <feColorMatrix in="shadowBlurOuter1" result="shadowMatrixOuter1" values="0 0 0 0 0 0 0 0 0 0 0 0 0 0 0 0 0 0 0.2 0"/>
            <feMerge>
                <feMergeNode in="shadowMatrixOuter1"/>
                <feMergeNode in="SourceGraphic"/>
            </feMerge>
        </filter>
        <path id="b" d="M.167.325h76.921v88.6H.167z"/>
        <linearGradient id="d" x1="0%" y1="-6.448%" y2="100%">
            <stop offset="0%" stop-color="#FF9800"/>
            <stop offset="100%" stop-color="#FF6D00"/>
        </linearGradient>
    </defs>
    <g fill="none" fill-rule="evenodd" filter="url(#a)" transform="translate(24)">
        <g transform="translate(55)">
            <mask id="c" fill="#fff">
                <use xlink:href="#b"/>
            </mask>
            <path fill="#DE6000" d="M77.088 38.8v50.126h-6.655V38.799c0-16.728-13.024-30.508-29.463-31.702a22.33 22.33 0 0 0-2.348-.116c-6.178 0-11.947 1.794-16.859 4.857a30.079 30.079 0 0 0-4.572 3.486C10.82 21.138 6.836 29.499 6.836 38.799v50.127H.166V38.799c0-1.564.11-3.14.297-4.655 1.172-9.728 5.992-18.36 13.074-24.472a37.136 37.136 0 0 1 5.173-3.78s0-.02.028-.02A38.2 38.2 0 0 1 38.622.322C59.827.322 77.088 17.6 77.088 38.8" mask="url(#c)"/>
        </g>
        <path fill="#DE6000" d="M3 90.404h165.733V56H3z"/>
        <path fill="#FFAB00" d="M157 62.326L168.98 56v35.64H157z"/>
        <path fill="#FF7500" d="M171.197 68.99L157 62v6.99z"/>
        <path fill="#FFAB00" d="M14.98 62.326L3 56v35.64h11.98z"/>
        <path fill="#FF7500" d="M0 68.99L15.197 62v6.99z"/>
        <path fill="url(#d)" d="M7.061 214.193A7.063 7.063 0 0 1 0 207.13V69h171.178v138.129c0 3.9-3.163 7.064-7.061 7.064H7.061z"/>
        <path fill="#FFAB00" d="M47.134 76.556V44.34c0-11.377 4.957-21.614 12.84-28.671a38.22 38.22 0 0 1 8.524-5.79c5.137-2.571 10.948-4.016 17.099-4.016 3.565 0 7.054.484 10.33 1.445 16.191 4.496 28.121 19.392 28.121 37.032v32.216a6.046 6.046 0 0 1 3.863 5.642v15.527a6.059 6.059 0 0 1-6.063 6.058h-2.263a6.056 6.056 0 0 1-6.058-6.058V82.198a6.045 6.045 0 0 1 3.866-5.644V44.34c0-17.538-14.274-31.819-31.796-31.819-4.799 0-9.378 1.07-13.445 3.01a30.401 30.401 0 0 0-7.488 4.885c-4.209 3.695-7.464 8.499-9.24 13.935a31.099 31.099 0 0 0-1.628 9.989v32.216a6.048 6.048 0 0 1 3.86 5.642v15.527a6.057 6.057 0 0 1-6.054 6.058h-2.27a6.056 6.056 0 0 1-6.06-6.058V82.198c0-2.574 1.6-4.766 3.862-5.642z"/>
        <g transform="translate(44 110)">
            <path fill="#FFF" d="M50.64 26.707c1.28.746 2.267 1.666 2.96 2.76.693 1.093 1.04 2.346 1.04 3.76 0 1.76-.507 3.306-1.52 4.64-1.013 1.333-2.44 2.36-4.28 3.08-1.84.72-3.96 1.08-6.36 1.08-2.4 0-4.52-.36-6.36-1.08-1.84-.72-3.267-1.747-4.28-3.08-1.013-1.334-1.52-2.88-1.52-4.64 0-1.414.347-2.667 1.04-3.76.693-1.094 1.68-2.014 2.96-2.76-.96-.667-1.7-1.48-2.22-2.44-.52-.96-.78-2.027-.78-3.2 0-1.627.467-3.06 1.4-4.3.933-1.24 2.247-2.194 3.94-2.86 1.693-.667 3.633-1 5.82-1 2.187 0 4.127.333 5.82 1 1.693.666 3.007 1.62 3.94 2.86.933 1.24 1.4 2.673 1.4 4.3 0 1.173-.26 2.24-.78 3.2s-1.26 1.773-2.22 2.44zm-8.16-8.24c-.987 0-1.787.26-2.4.78s-.92 1.246-.92 2.18c0 .906.3 1.62.9 2.14.6.52 1.407.78 2.42.78s1.827-.26 2.44-.78.92-1.234.92-2.14c0-.934-.307-1.66-.92-2.18-.613-.52-1.427-.78-2.44-.78zm0 18c1.28 0 2.3-.314 3.06-.94.76-.627 1.14-1.474 1.14-2.54 0-1.067-.38-1.914-1.14-2.54-.76-.627-1.78-.94-3.06-.94s-2.3.313-3.06.94c-.76.626-1.14 1.473-1.14 2.54 0 1.066.38 1.913 1.14 2.54.76.626 1.78.94 3.06.94zM38.03 69.283h-1.76v3.584h-1.537v-8.48h1.536v3.584h1.792l2.752-3.584h1.648l-3.216 4.08 3.44 4.4h-1.808l-2.848-3.584zM50.54 65.73h-4.704v7.136h-1.536v-8.48h6.24v1.344z"/>
            <path fill="#FFF" d="M20.4 52.133h41.933v1.133H20.4z" opacity=".4"/>
            <rect width="84" height="84" x=".5" y=".5" stroke="#FFF" stroke-opacity=".4" rx="16"/>
        </g>
    </g>
</svg>
