<svg xmlns="http://www.w3.org/2000/svg" width="107" height="103" viewBox="0 0 107 103">
    <path fill="#64DD17" fill-rule="evenodd" d="M23.507 38.608l8.952 5.17v5.37h-3.116v-3.57l-7.394-4.27 1.558-2.7zm5.836 12.02h3.117v3.307h-3.117v-3.307zm28.58-12.02l8.952 5.17v5.37h-3.116v-3.57l-7.394-4.27 1.558-2.7zm5.835 12.02h3.116v3.307h-3.116v-3.307zm25.398-19.91l17.208 9.94v21.68l-17.208 9.94v19.884l-18.766 10.84-17.208-9.94-17.208 9.94-18.766-10.84V72.277L0 62.337v-21.68l17.208-9.94V10.84L35.974 0l17.208 9.94L70.39 0l18.766 10.84v19.877zM54.74 12.64v18.077l15.65 9.04 15.65-9.04V12.64L70.39 3.6l-15.65 9.04zm-34.416 0v18.077l15.65 9.04 15.65-9.04V12.64L35.974 3.6l-15.65 9.04zM3.116 60.537l15.65 9.04 15.65-9.04V42.46l-15.652-9.042-15.648 9.04v18.08zm48.508 29.824v-18.08l-15.65-9.04-15.65 9.04v18.08l15.65 9.04 15.65-9.04zM37.532 60.537l15.65 9.04 15.65-9.04V42.46l-15.65-9.04-15.65 9.04v18.077zM70.39 99.401l15.65-9.04v-18.08l-15.65-9.04-15.65 9.04v18.08l15.65 9.04zm32.858-38.864v-18.08L87.6 33.418 71.948 42.46v18.077l15.65 9.04 15.65-9.04zm-10.91-21.929l8.953 5.17v5.37h-3.116v-3.57l-7.394-4.27 1.558-2.7zm5.836 12.02h3.117v3.307h-3.117v-3.307zM40.715 8.79l8.952 5.17v5.37h-3.116v-3.57l-7.394-4.27 1.558-2.7zm5.836 12.02h3.116v3.307H46.55V20.81zM75.13 8.79l8.952 5.17v5.37h-3.116v-3.57l-7.394-4.27 1.558-2.7zm5.836 12.02h3.116v3.307h-3.116V20.81zM40.715 68.431l8.952 5.171v5.37h-3.116v-3.57l-7.394-4.27 1.558-2.7zm5.836 12.02h3.116v3.307H46.55V80.45zm28.58-12.02l8.952 5.171v5.37h-3.116v-3.57l-7.394-4.27 1.558-2.7zm5.836 12.02h3.116v3.307h-3.116V80.45z"/>
</svg>
