<svg xmlns="http://www.w3.org/2000/svg" width="120" height="96" viewBox="0 0 120 96">
    <path fill="#64DD17" fill-rule="nonzero" d="M113.35 45.659c3.666 0 6.65 2.948 6.65 6.572 0 3.625-2.984 6.573-6.651 6.573-12.978 0-23.417 5.09-28.677 8.276-2.746 4.183-7.497 6.85-12.758 6.85H23.592c-6.94 0-12.995-4.638-14.726-11.28l-1.257-4.82C3.35 57.443 0 53.893 0 49.584c0-4.565 3.759-8.28 8.379-8.28h1.873a5.316 5.316 0 0 1 1.29-2.047l3.671-3.63c3.83-3.853 7.925.264 7.925.264s3.469-4.197 7.926-.263l3.672 3.629a5.318 5.318 0 0 1 1.29 2.047h3.327c1.115-6.531 6.806-11.347 13.614-11.347 3.298 0 6.418 1.138 8.907 3.22a13.874 13.874 0 0 1 8.922-3.22c4.34 0 8.343 1.957 10.981 5.368.59.762.442 1.853-.33 2.435a1.772 1.772 0 0 1-2.463-.325c-1.968-2.544-4.952-4.003-8.188-4.003-4.88 0-8.977 3.336-10.032 7.872h26.364c4.138 0 7.582 2.98 8.257 6.883 5.938-1.678 11.97-2.53 17.964-2.53zM52.966 33.433c-4.87 0-8.974 3.304-10.032 7.872h14.247a13.479 13.479 0 0 1 2.316-5.565 10.294 10.294 0 0 0-6.53-2.307zM25.89 38.085l-3.257 3.22h9.203l-3.258-3.22a1.918 1.918 0 0 0-2.688 0zM21.682 56.13v5.799c0 1.752 1.443 3.179 3.217 3.179s3.217-1.427 3.217-3.18v-7.83c0-2.567 2.112-4.654 4.709-4.654 2.596 0 4.709 2.087 4.708 4.653v3.498c0 1.753 1.443 3.18 3.217 3.18s3.217-1.427 3.217-3.18V44.78H21.682V56.13zm12.336-1.739s.177-1.473-1.193-1.473-1.194 1.473-1.194 1.473h2.387zM17.699 38.085l-3.258 3.22h4.002a5.316 5.316 0 0 1 1.29-2.047l.92-.91-.267-.263a1.918 1.918 0 0 0-2.687 0zM8.38 54.391h9.788V44.78H8.379c-2.682 0-4.863 2.156-4.863 4.806s2.181 4.806 4.863 4.806zm45.34 3.475c-.97 0-1.757-.778-1.757-1.738 0-.959.787-1.737 1.757-1.737h33.409c2.682 0 4.863-2.156 4.863-4.806s-2.182-4.806-4.863-4.806H47.483v12.817c0 3.668-3.02 6.653-6.733 6.653-3.62 0-6.581-2.84-6.725-6.383h-2.393v4.063c0 3.668-3.02 6.653-6.733 6.653-3.712 0-6.732-2.985-6.732-6.653v-4.063h-6.918l1.021 3.918c1.331 5.106 5.987 8.672 11.322 8.672h48.322c5.336 0 9.991-3.566 11.322-8.672l1.021-3.918H53.72zm59.63-2.536c1.729 0 3.135-1.39 3.135-3.099 0-1.708-1.406-3.098-3.135-3.098-6.06 0-12.168.922-18.17 2.738-.938 3.222-3.805 5.644-7.282 5.958l-1.06 4.07c6.144-3.114 15.454-6.57 26.512-6.57zM37.234 24.287c.372 2.939-.17 4.894-1.69 5.662-1.795.909-4.135-.279-5.755-1.579-1.488-1.194-2.979-2.83-3.625-3.98-1.464-2.608-.509-5.906 2.13-7.353a5.496 5.496 0 0 1 4.16-.47 5.425 5.425 0 0 1 3.28 2.574c.645 1.15 1.262 3.266 1.5 5.146zm-3.466 2.499c.274-1.177-.262-4.588-1.109-5.958-.835-1.352-2.202-1.003-2.66-.753a1.924 1.924 0 0 0-.76 2.629c.788 1.404 3.373 3.69 4.529 4.082zM51.93 16.092c.095 1.312-.25 3.488-.836 5.292-.918 2.819-2.246 4.309-3.949 4.429a3.085 3.085 0 0 1-.217.008c-1.616 0-3.07-1.29-4.327-3.84-.84-1.703-1.493-3.808-1.587-5.12-.214-2.974 2.06-5.566 5.07-5.778 3.008-.211 5.632 2.035 5.846 5.01zm-5.045 6.111c.751-.953 1.654-4.262 1.538-5.864-.077-1.063-1.016-1.865-2.09-1.79a1.943 1.943 0 0 0-1.812 2.065c.115 1.602 1.484 4.751 2.364 5.59zM71.5 8.276c-.655 1.14-2.157 2.752-3.652 3.92-2.337 1.824-4.271 2.316-5.75 1.463a3.085 3.085 0 0 1-.184-.114c-1.34-.904-1.825-2.787-1.441-5.603.256-1.882.893-3.992 1.548-5.133C63.507.224 66.842-.653 69.455.854c2.613 1.507 3.532 4.837 2.046 7.422zm-7.6 2.245c1.156-.37 3.755-2.608 4.555-4 .53-.925.2-2.115-.732-2.654a1.943 1.943 0 0 0-2.657.699c-.8 1.392-1.427 4.769-1.166 5.955zm29.954 15.213c-1.035.812-3.03 1.743-4.855 2.265-2.85.816-4.828.548-5.88-.797a3.085 3.085 0 0 1-.127-.175c-.904-1.34-.648-3.267.763-5.734.942-1.649 2.323-3.368 3.358-4.18 2.346-1.84 5.766-1.404 7.624.972 1.858 2.376 1.463 5.808-.883 7.649zm-7.888-.766c1.21.09 4.459-1.012 5.722-2.003.839-.659.978-1.886.316-2.735a1.943 1.943 0 0 0-2.726-.347c-1.263.991-3.109 3.887-3.312 5.085zM18.5 86a3.5 3.5 0 0 0 0 7h83a3.5 3.5 0 1 0 0-7h-83zm0-3h83a6.5 6.5 0 1 1 0 13h-83a6.5 6.5 0 1 1 0-13z"/>
</svg>
