<svg xmlns="http://www.w3.org/2000/svg" width="98" height="85" viewBox="0 0 98 85">
    <path fill="#64DD17" fill-rule="evenodd" d="M97.516 6.921c.308.307.484.732.484 1.168v35.258c0 .436-.176.861-.484 1.17a1.667 1.667 0 0 1-1.167.482H74.66l-10.71 4.286a1.652 1.652 0 0 1-2.262-1.534V45h-7.153c-.435 0-.86-.176-1.166-.482a1.665 1.665 0 0 1-.484-1.17V22.156a1.652 1.652 0 0 1 3.301 0v19.538h7.153a1.656 1.656 0 0 1 1.65 1.653v1.963l8.742-3.497c.191-.077.402-.119.612-.119h20.357V9.742H56.185v5.804c0 .912-.742 1.654-1.65 1.654-.912 0-1.651-.742-1.651-1.654V8.089a1.655 1.655 0 0 1 1.65-1.653H96.35c.434 0 .859.177 1.167.485zm-17.017 8.221a7.136 7.136 0 0 1 2.095 5.064 7.129 7.129 0 0 1-2.095 5.063 7.104 7.104 0 0 1-3.406 1.906v2.948c0 .91-.742 1.653-1.651 1.653-.912 0-1.65-.743-1.65-1.653v-4.406c0-.913.738-1.655 1.65-1.655h.02a3.832 3.832 0 0 0 2.7-1.13 3.833 3.833 0 0 0 1.131-2.726 3.833 3.833 0 0 0-1.131-2.724 3.832 3.832 0 0 0-5.442 0 3.835 3.835 0 0 0-1.13 2.721v.003c0 .912-.741 1.652-1.65 1.652-.911 0-1.65-.74-1.65-1.652 0-1.913.743-3.71 2.095-5.064a7.11 7.11 0 0 1 5.057-2.097 7.119 7.119 0 0 1 5.057 2.097zm-5.057 17.736c.909 0 1.65.74 1.65 1.653v2.2c0 .913-.741 1.653-1.65 1.653-.911 0-1.65-.74-1.65-1.652V34.53c0-.913.739-1.653 1.65-1.653zM43.465 50.176c4.551 0 8.253 3.707 8.253 8.263v8.814c0 .913-.739 1.652-1.65 1.652H1.65c-.912 0-1.651-.74-1.651-1.652v-8.814c0-4.556 3.702-8.263 8.253-8.263h7.152v-1.993c-5.293-3.438-8.803-9.406-8.803-16.179V21.042C5.404 6.1 11.165 2.306 11.827 1.922a1.648 1.648 0 0 1 1.537-.061l3.868 1.844C19.284 2.65 25.06 0 31.223 0c5.288 0 9.536 1.919 12.626 5.703 3.761 4.605 5.668 11.97 5.668 21.888a1.653 1.653 0 0 1-2.205 1.556l-2.196-.785v3.642c0 6.772-3.509 12.74-8.801 16.178l-.001 1.994h7.151zM12.923 5.312C11.806 6.544 9.52 10.1 9.76 18.379l6.558-3.283a1.649 1.649 0 0 1 1.293-.079L46.18 25.232c-.48-14.552-5.505-21.927-14.956-21.927-6.628 0-13.06 3.647-13.125 3.684a1.65 1.65 0 0 1-1.531.06l-3.644-1.737zm-3.02 26.692c0 8.805 7.158 15.969 15.956 15.969 8.798 0 15.956-7.164 15.956-15.969v-4.822l-24.65-8.815-7.261 3.635v10.002zm23.11 17.894a19.146 19.146 0 0 1-7.154 1.38c-2.526 0-4.94-.49-7.153-1.38v1.93c0 3.95 3.21 7.162 7.153 7.162 3.944 0 7.153-3.212 7.153-7.161v-1.93zm15.404 8.541v-.005a4.96 4.96 0 0 0-4.951-4.952H36.18c-.794 4.988-5.12 8.813-10.322 8.813-5.202 0-9.528-3.825-10.322-8.813H8.253A4.96 4.96 0 0 0 3.3 58.439V65.6h45.116v-7.16zM28.57 80.612a1.867 1.867 0 1 1 1.578-3.383c21.495 10.024 47.041.734 57.059-20.75a1.867 1.867 0 0 1 3.384 1.578c-10.888 23.352-38.656 33.45-62.02 22.555z"/>
</svg>
