<svg xmlns="http://www.w3.org/2000/svg" width="99" height="99" viewBox="0 0 99 99">
    <path fill="#64DD17" fill-rule="nonzero" d="M8.25 51.053H6.6c-3.64 0-6.6-2.954-6.6-6.586 0-3.633 2.96-6.587 6.6-6.587h.208a6.61 6.61 0 0 1 6.391-4.94 6.611 6.611 0 0 1 6.392 4.94h.208c3.64 0 6.6 2.954 6.6 6.587 0 3.632-2.96 6.586-6.6 6.586h-1.65v4.94c0 .911-.74 1.647-1.65 1.647h-6.6c-.91 0-1.65-.736-1.65-1.647v-4.94zm8.321-3.291h3.228a3.3 3.3 0 0 0 3.3-3.294 3.3 3.3 0 0 0-3.3-3.293h-1.65c-.91 0-1.65-.738-1.65-1.647a3.3 3.3 0 0 0-6.6 0c0 .91-.739 1.647-1.65 1.647H6.6a3.3 3.3 0 0 0-3.3 3.293 3.3 3.3 0 0 0 3.3 3.294h3.228a1.68 1.68 0 0 1 .072-.002h6.6c.024 0 .048 0 .072.002zm26.366-4.948l-3.156 3.301h24.565a3.3 3.3 0 0 0 3.3-3.293 3.3 3.3 0 0 0-3.3-3.293 1.648 1.648 0 1 1 0-3.294h7.969a3.514 3.514 0 0 0 3.587-3.181c.092-1.749-1.307-3.303-3.125-3.4l-.182-.006a1.648 1.648 0 1 1 0-3.293h4.955c.883 0 1.71-.341 2.333-.96a3.27 3.27 0 0 0 .968-2.327l-.005-.18c-.161-1.733-1.692-3.12-3.494-3.12h-1.457a1.645 1.645 0 1 1-1.166-2.811l4.34-4.33a5.522 5.522 0 0 0 .483-7.399c-1.862-2.253-5.246-2.579-7.529-.705-.13.107-.256.22-.378.341L67.17 9.397a1.649 1.649 0 0 1-2.824-1.154V6.876a3.529 3.529 0 0 0-3.188-3.583c-1.789-.09-3.31 1.306-3.405 3.119l-.005.183V14.83a1.649 1.649 0 0 1-1.65 1.645h-.002c-.91 0-1.648-.738-1.648-1.647v-.01a3.302 3.302 0 0 0-3.297-3.292l-.178.005c-1.754.165-3.156 1.725-3.125 3.547v7.984a1.649 1.649 0 0 1-1.65 1.645h-.002c-.91 0-1.648-.738-1.648-1.647v-.012a3.299 3.299 0 0 0-3.295-3.288l-.18.005c-1.753.165-3.156 1.724-3.124 3.547V45.3l3.951-4.133h-.655V29.64h3.3v8.76l6.784-7.097h-.185v-9.88h3.3v6.62l6.6-6.903v-7.95h3.3v4.498l7.044-7.37 1.281 1.393-7.71 8.065h5.984v3.294h-8.25v-.923L55.53 29.64h7.163v3.293h-9.9v-.43l-6.708 7.017h8.358v3.294H42.937zm-8.09 5.73a1.637 1.637 0 0 1-.199-.784V23.34c-.06-3.508 2.655-6.533 6.184-6.86a6.587 6.587 0 0 1 3.715.866v-2.24c-.06-3.507 2.655-6.532 6.182-6.86a6.57 6.57 0 0 1 3.717.873V6.595A6.59 6.59 0 0 1 61.4.01a6.883 6.883 0 0 1 5.879 4.586l2.029-2.055c.203-.203.406-.385.615-.558 3.688-3.029 9.16-2.505 12.195 1.177a8.806 8.806 0 0 1-.73 11.808l-1.867 1.864c2.483.842 4.364 3.085 4.618 5.815a6.538 6.538 0 0 1-1.925 5.08 6.563 6.563 0 0 1-3.922 1.882 6.536 6.536 0 0 1 .902 3.685c-.331 3.585-3.362 6.333-6.906 6.236h-2.229c.564.97.886 2.095.886 3.293.002 3.63-2.958 6.584-6.598 6.584H36.634l-9.024 9.44-1.281-1.392 8.518-8.91zM97.343 62.58c.913 0 1.65.736 1.65 1.647 0 19.067-15.543 34.58-34.647 34.58H34.648C15.542 98.807 0 83.294 0 64.227c0-.91.74-1.647 1.65-1.647h95.693zM64.346 95.514c16.731 0 30.444-13.15 31.305-29.64H3.343c.86 16.49 14.573 29.64 31.305 29.64h29.698zM30.796 7.617c2.175 3.309 1.408 7.776-1.751 10.169l-1.46 1.138v.843c.001 4.54-3.7 8.235-8.248 8.235-4.549 0-8.25-3.694-8.25-8.234v-.843l-1.389-1.083a7.57 7.57 0 0 1-1.404-1.067 7.523 7.523 0 0 1-2.318-5.314 7.511 7.511 0 0 1 2.125-5.396c2.874-2.978 7.62-3.091 10.64-.28l.571.41.594-.451c.122-.091.23-.167.338-.238 3.485-2.323 8.217-1.378 10.545 2.102.001.003.005.006.006.01zm-3.764 7.56c1.798-1.363 2.234-3.88 1.01-5.747a4.278 4.278 0 0 0-2.736-1.822 4.286 4.286 0 0 0-3.232.64l-1.739 1.306a1.651 1.651 0 0 1-1.962.024l-1.65-1.185a1.74 1.74 0 0 1-.18-.15 4.275 4.275 0 0 0-2.978-1.199 4.282 4.282 0 0 0-3.088 1.308 4.248 4.248 0 0 0-1.201 3.05 4.252 4.252 0 0 0 1.311 3.003c.258.249.545.463.855.639.07.04.137.084.2.133l2.111 1.647c.401.311.634.79.634 1.298v1.646c0 2.724 2.22 4.94 4.95 4.94 2.729 0 4.95-2.216 4.95-4.94v-1.646c0-.508.234-.987.633-1.298l2.112-1.647zm9.262-13.53h3.3V4.94h-3.3V1.646zm9.9 52.693h3.3v3.293h-3.3V54.34zm42.9-44.452c3.64 0 6.6 2.954 6.6 6.587 0 3.632-2.96 6.587-6.6 6.587v-3.294a3.3 3.3 0 0 0 3.3-3.293 3.3 3.3 0 0 0-3.3-3.293V9.888zM3.297 24.716h3.3v3.294h-3.3v-3.294zM0 18.13h3.3v3.293H0V18.13zM64.346 52.7c3.64 0 6.6 2.954 6.6 6.587h-3.3a3.3 3.3 0 0 0-6.6 0h-3.3c0-3.633 2.96-6.587 6.6-6.587zm-49.497 1.647v-3.294h-3.3v3.294h3.3zM87.444 42.82c2.73 0 4.95 2.216 4.95 4.94s-2.22 4.94-4.95 4.94c-2.729 0-4.95-2.216-4.95-4.94s2.221-4.94 4.95-4.94zm0 6.588c.911 0 1.65-.737 1.65-1.646a1.649 1.649 0 0 0-3.3 0c0 .907.74 1.646 1.65 1.646zm0-13.175c6.367 0 11.55 5.171 11.55 11.527 0 6.356-5.183 11.527-11.55 11.527-6.367 0-11.549-5.17-11.549-11.527 0-6.356 5.182-11.527 11.55-11.527zm0 19.762c4.549 0 8.25-3.694 8.25-8.233 0-4.54-3.701-8.234-8.25-8.234-4.549 0-8.25 3.694-8.25 8.234 0 4.538 3.701 8.233 8.25 8.233z"/>
</svg>
