<svg xmlns="http://www.w3.org/2000/svg" xmlns:xlink="http://www.w3.org/1999/xlink" width="155" height="190" viewBox="22 0 155 190">
    <defs>
        <filter id="a" width="221.1%" height="196.8%" x="-60.5%" y="-48.4%" filterUnits="objectBoundingBox">
            <feOffset dy="24" in="SourceAlpha" result="shadowOffsetOuter1"/>
            <feGaussianBlur in="shadowOffsetOuter1" result="shadowBlurOuter1" stdDeviation="12"/>
            <feColorMatrix in="shadowBlurOuter1" result="shadowMatrixOuter1" values="0 0 0 0 0 0 0 0 0 0 0 0 0 0 0 0 0 0 0.2 0"/>
            <feMerge>
                <feMergeNode in="shadowMatrixOuter1"/>
                <feMergeNode in="SourceGraphic"/>
            </feMerge>
        </filter>
        <path id="b" d="M.147.287h67.977v78.298H.147z"/>
        <linearGradient id="d" x1="0%" y1="0%" y2="100%">
            <stop offset="0%" stop-color="#00B0FF"/>
            <stop offset="100%" stop-color="#0277BD"/>
        </linearGradient>
    </defs>
    <g fill="none" fill-rule="evenodd" filter="url(#a)" transform="translate(24)">
        <g transform="translate(48.605)">
            <mask id="c" fill="#fff">
                <use xlink:href="#b"/>
            </mask>
            <path fill="#016FB1" d="M68.124 34.288v44.297h-5.88V34.288c0-14.784-11.51-26.96-26.038-28.016a19.733 19.733 0 0 0-2.075-.103c-5.46 0-10.558 1.586-14.898 4.292a26.581 26.581 0 0 0-4.04 3.081C9.56 18.68 6.04 26.07 6.04 34.288v44.297H.147V34.288c0-1.383.097-2.775.262-4.114 1.036-8.597 5.295-16.226 11.554-21.626a32.818 32.818 0 0 1 4.571-3.34s0-.02.025-.02A33.758 33.758 0 0 1 34.13.286c18.74 0 33.993 15.267 33.993 34.003" mask="url(#c)"/>
        </g>
        <path fill="#016FB1" d="M2.651 79.892h146.462V49.488H2.651z"/>
        <path fill="#0BF" d="M138.744 55.079l10.587-5.59v31.496h-10.587z"/>
        <path fill="#0189D2" d="M151.29 60.968l-12.546-6.177v6.177z"/>
        <path fill="#0BF" d="M13.238 55.079L2.65 49.489v31.496h10.587z"/>
        <path fill="#0189D2" d="M0 60.968l13.43-6.177v6.177z"/>
        <path fill="url(#d)" d="M6.24 189.287A6.242 6.242 0 0 1 0 183.044V60.977h151.274v122.067a6.244 6.244 0 0 1-6.24 6.243H6.24z"/>
        <path fill="#0BF" d="M41.653 67.654v-28.47c0-10.054 4.38-19.1 11.348-25.337a33.775 33.775 0 0 1 7.532-5.116 33.67 33.67 0 0 1 15.11-3.55c3.152 0 6.234.428 9.13 1.277 14.308 3.974 24.851 17.137 24.851 32.726v28.47a5.343 5.343 0 0 1 3.413 4.986v13.722a5.354 5.354 0 0 1-5.357 5.353h-2a5.352 5.352 0 0 1-5.354-5.353V72.64a5.342 5.342 0 0 1 3.417-4.988V39.184c0-15.498-12.615-28.119-28.1-28.119-4.24 0-8.286.946-11.88 2.66a26.866 26.866 0 0 0-6.618 4.317c-3.72 3.265-6.596 7.51-8.166 12.315a27.483 27.483 0 0 0-1.438 8.827v28.47a5.344 5.344 0 0 1 3.411 4.986v13.722a5.353 5.353 0 0 1-5.35 5.353h-2.007a5.352 5.352 0 0 1-5.354-5.353V72.64a5.342 5.342 0 0 1 3.412-4.986z"/>
        <g transform="translate(34 95)">
            <path fill="#FFF" d="M56.827 36.107h-4.16v5.36h-7.72v-5.36h-14.8v-5.16l12.56-17.48h8.2l-11.4 16.36h5.68v-4.76h7.48v4.76h4.16zM39.163 69.283h-1.76v3.584h-1.536v-8.48h1.536v3.584h1.792l2.752-3.584h1.648l-3.216 4.08 3.44 4.4H42.01l-2.848-3.584zm12.512-3.552H46.97v7.136h-1.536v-8.48h6.24v1.344z"/>
            <path fill="#FFF" d="M21.533 52.133h41.933v1.133H21.533z" opacity=".5"/>
            <rect width="84" height="84" x=".5" y=".5" stroke="#FFF" stroke-opacity=".4" rx="16"/>
        </g>
    </g>
</svg>
